<?xml version="1.0" encoding="utf-8"?>
<!-- Generator: Adobe Illustrator 17.0.0, SVG Export Plug-In . SVG Version: 6.00 Build 0)  -->
<!DOCTYPE svg PUBLIC "-//W3C//DTD SVG 1.1//EN" "http://www.w3.org/Graphics/SVG/1.1/DTD/svg11.dtd">
<svg version="1.1" id="Camada_1" xmlns="http://www.w3.org/2000/svg" xmlns:xlink="http://www.w3.org/1999/xlink" x="0px" y="0px"
	 width="139.434px" height="75.585px" viewBox="0 0 139.434 75.585" enable-background="new 0 0 139.434 75.585"
	 xml:space="preserve">
<g>
	<path fill-rule="evenodd" clip-rule="evenodd" d="M69.617,11.218c-1.082,0-1.964,0.441-2.725,1.322
		c-0.761,0.921-1.121,2.243-1.121,4.086c0,3.606,1.322,5.41,3.926,5.41c2.644,0,3.926-1.804,3.926-5.41
		c0-1.723-0.36-3.045-1.082-4.006C71.82,11.699,70.859,11.218,69.617,11.218z"/>
	<path fill-rule="evenodd" clip-rule="evenodd" d="M69.296,45.074c-7.091,0-10.497-5.409-10.497-14.544l6.53-0.721
		c0,3.926-0.2,8.655,0.882,10.096c1.002,1.282,6.29,1.523,6.971-0.16c0.761-1.843,0.761-6.771,0.761-13.503l-0.04-1.081
		c-1.363,2.123-3.406,3.205-6.13,3.205c-3.085,0-5.449-1.162-7.051-3.526c-1.642-2.324-2.444-4.928-2.444-7.773
		c0-3.125,0.922-5.849,2.805-8.093c1.843-2.284,4.648-3.406,8.374-3.406c3.246,0,5.73,0.882,7.453,2.644
		c1.683,1.723,2.804,3.966,3.405,6.651c0.561,2.684,0.842,5.449,0.842,8.294C81.156,35.698,77.189,45.074,69.296,45.074
		L69.296,45.074z M69.737,0C58.479,0,49.344,9.135,49.344,20.393c0,4.087,1.202,7.933,3.325,11.138
		c0.041,0.08,0.08,0.16,0.161,0.281c0.841,1.442,1.843,2.764,3.044,4.367c2.605,3.526,2.885,6.17,3.206,8.854
		c0.561,4.167,1.802,5.529,3.285,5.609c2.925,0.041,6.851-0.08,7.372-0.12h0.04c0.441,0.04,4.407,0.161,7.332,0.12
		c1.483-0.08,2.724-1.442,3.285-5.609c0.32-2.684,0.601-5.328,3.205-8.854c1.322-1.803,2.484-3.205,3.366-4.888
		c1.963-3.125,3.125-6.851,3.125-10.818v-0.12C90.09,9.135,80.955,0,69.737,0z"/>
	<path fill-rule="evenodd" clip-rule="evenodd" d="M75.507,52.245H63.166c-0.48,0-0.881,0.401-0.881,0.882
		c0,0.52,0.401,0.881,0.881,0.881h12.341c0.48,0,0.881-0.361,0.881-0.881C76.388,52.646,75.987,52.245,75.507,52.245z"/>
	<path fill-rule="evenodd" clip-rule="evenodd" d="M75.507,55.33H63.166c-0.48,0-0.881,0.4-0.881,0.881
		c0,0.522,0.401,0.882,0.881,0.882h12.341c0.48,0,0.881-0.36,0.881-0.882C76.388,55.73,75.987,55.33,75.507,55.33z"/>
	<path fill-rule="evenodd" clip-rule="evenodd" d="M72.181,58.335h-5.73c-0.48,0-0.881,0.401-0.881,0.882
		c0,0.48,0.401,0.881,0.881,0.881h5.73c0.521,0,0.881-0.401,0.881-0.881C73.062,58.736,72.702,58.335,72.181,58.335z"/>
</g>
<g>
	<path fill-rule="evenodd" clip-rule="evenodd" d="M13.702,61.66c0.932,0.617,1.679,1.418,2.243,2.428
		c0.578,1.01,0.853,2.244,0.853,3.714c0,1.273-0.248,2.402-0.761,3.347c-0.511,0.958-1.181,1.732-2.02,2.336
		c-0.867,0.617-1.838,1.063-2.927,1.365c-1.089,0.288-2.218,0.433-3.413,0.433H0.025v-0.826c0.224-0.013,0.513-0.026,0.854-0.066
		c0.341-0.039,0.577-0.078,0.683-0.131c0.262-0.105,0.433-0.249,0.537-0.433c0.106-0.184,0.145-0.407,0.145-0.656V62.408
		c0-0.25-0.039-0.472-0.131-0.656c-0.092-0.197-0.276-0.354-0.551-0.486c-0.263-0.118-0.552-0.197-0.853-0.25
		C0.406,60.978,0.17,60.951,0,60.938v-0.84h8.084c0.867,0,1.785,0.118,2.77,0.341C11.838,60.662,12.782,61.069,13.702,61.66
		L13.702,61.66z M11.523,72.553c0.341-0.577,0.604-1.26,0.761-2.048c0.158-0.787,0.236-1.693,0.236-2.717
		c0-1.01-0.105-1.929-0.314-2.756c-0.224-0.827-0.525-1.536-0.945-2.113c-0.421-0.59-0.932-1.037-1.549-1.365
		c-0.617-0.314-1.313-0.472-2.1-0.472c-0.249,0-0.538,0-0.853,0.013c-0.316,0.013-0.552,0.013-0.709,0.026v11.523
		c0,0.263,0.027,0.485,0.104,0.683c0.067,0.196,0.185,0.367,0.342,0.512c0.171,0.157,0.368,0.275,0.604,0.354
		c0.236,0.078,0.551,0.118,0.945,0.118c0.8,0,1.496-0.145,2.074-0.447C10.696,73.563,11.155,73.13,11.523,72.553z"/>
	<path fill-rule="evenodd" clip-rule="evenodd" d="M23.925,75.283h-5.893v-0.577c0.132-0.013,0.342-0.026,0.604-0.053
		c0.263-0.013,0.434-0.039,0.538-0.079c0.185-0.079,0.315-0.184,0.381-0.302c0.066-0.118,0.091-0.276,0.091-0.472v-7.534
		c0-0.17-0.025-0.315-0.091-0.446c-0.066-0.131-0.196-0.236-0.381-0.315c-0.118-0.052-0.302-0.105-0.538-0.157
		c-0.223-0.053-0.433-0.079-0.604-0.106v-0.59h5.893v0.59c-0.144,0.013-0.328,0.04-0.55,0.066c-0.236,0.027-0.421,0.066-0.578,0.118
		c-0.197,0.065-0.328,0.158-0.393,0.302c-0.053,0.131-0.093,0.289-0.093,0.46v7.534c0,0.183,0.04,0.328,0.105,0.459
		c0.066,0.131,0.197,0.237,0.381,0.315c0.105,0.039,0.275,0.092,0.525,0.131c0.236,0.039,0.446,0.066,0.603,0.079V75.283z"/>
	<path fill-rule="evenodd" clip-rule="evenodd" d="M36.747,70.965c-0.144,0.013-0.287,0.039-0.407,0.052
		c-0.118,0.027-0.261,0.066-0.446,0.118c-0.209,0.066-0.34,0.171-0.407,0.328c-0.065,0.144-0.091,0.302-0.091,0.473v1.233
		c0,0.249,0,0.446,0,0.604c0.013,0.145,0.013,0.341,0.026,0.565c-0.499,0.302-1.233,0.577-2.218,0.84
		c-0.971,0.275-1.876,0.407-2.69,0.407c-0.775,0-1.496-0.118-2.166-0.354c-0.669-0.236-1.26-0.591-1.771-1.064
		c-0.513-0.459-0.92-1.037-1.207-1.732c-0.289-0.683-0.434-1.47-0.434-2.362c0-0.827,0.131-1.601,0.407-2.297
		c0.275-0.709,0.67-1.312,1.194-1.824c0.512-0.512,1.129-0.893,1.864-1.168c0.735-0.276,1.535-0.42,2.428-0.42
		c0.603,0,1.167,0.079,1.68,0.224c0.511,0.157,0.932,0.315,1.272,0.485l0.46-0.42h0.656l0.065,3.885h-0.655
		c-0.381-1.168-0.841-2.034-1.365-2.598c-0.525-0.564-1.194-0.84-2.008-0.84c-0.959,0-1.693,0.42-2.218,1.26
		c-0.525,0.84-0.787,1.995-0.787,3.465c0,1.561,0.262,2.782,0.773,3.674c0.513,0.88,1.234,1.326,2.166,1.326
		c0.446,0,0.841-0.066,1.181-0.197c0.342-0.131,0.604-0.288,0.8-0.46v-2.165c0-0.17-0.039-0.328-0.104-0.446
		c-0.065-0.118-0.197-0.236-0.394-0.315c-0.145-0.078-0.328-0.131-0.551-0.183c-0.223-0.04-0.42-0.066-0.565-0.092v-0.578h5.512
		V70.965z"/>
	<path fill-rule="evenodd" clip-rule="evenodd" d="M43.153,75.283H37.26v-0.577c0.131-0.013,0.328-0.026,0.59-0.053
		c0.263-0.013,0.446-0.039,0.538-0.079c0.185-0.079,0.315-0.184,0.381-0.302c0.065-0.118,0.105-0.276,0.105-0.472v-7.534
		c0-0.17-0.026-0.315-0.091-0.446c-0.067-0.131-0.198-0.236-0.395-0.315c-0.118-0.052-0.289-0.105-0.525-0.157
		c-0.236-0.053-0.432-0.079-0.603-0.106v-0.59h5.893v0.59c-0.158,0.013-0.342,0.04-0.565,0.066c-0.223,0.027-0.42,0.066-0.564,0.118
		c-0.198,0.065-0.328,0.158-0.394,0.302c-0.065,0.131-0.091,0.289-0.091,0.46v7.534c0,0.183,0.026,0.328,0.091,0.459
		c0.066,0.131,0.196,0.237,0.394,0.315c0.105,0.039,0.276,0.092,0.512,0.131c0.249,0.039,0.446,0.066,0.617,0.079V75.283z"/>
	<path fill-rule="evenodd" clip-rule="evenodd" d="M54.019,67.697h-0.59c-0.145-0.447-0.393-0.945-0.735-1.457
		c-0.342-0.525-0.656-0.8-0.945-0.84c-0.158-0.026-0.354-0.039-0.59-0.052c-0.236-0.013-0.434-0.027-0.604-0.027H50.2v8.347
		c0,0.171,0.027,0.328,0.092,0.472c0.065,0.131,0.197,0.249,0.381,0.329c0.118,0.039,0.301,0.092,0.537,0.131
		c0.25,0.052,0.448,0.078,0.618,0.105v0.577h-5.919v-0.577c0.145-0.013,0.341-0.039,0.603-0.065
		c0.263-0.026,0.446-0.066,0.539-0.105c0.196-0.078,0.328-0.184,0.393-0.314c0.066-0.145,0.092-0.302,0.092-0.486v-8.413h-0.341
		c-0.17,0-0.38,0.013-0.618,0.027c-0.222,0.012-0.419,0.026-0.59,0.052c-0.288,0.04-0.603,0.315-0.945,0.84
		c-0.34,0.512-0.578,1.01-0.735,1.457h-0.59v-3.045h10.302V67.697z"/>
	<path fill-rule="evenodd" clip-rule="evenodd" d="M66.173,75.283h-5.788v-0.577c0.262-0.026,0.577-0.065,0.944-0.144
		c0.368-0.078,0.539-0.171,0.539-0.289v-0.145c-0.013-0.039-0.04-0.105-0.065-0.196l-0.906-2.205h-3.675
		c-0.078,0.21-0.17,0.446-0.276,0.722c-0.105,0.276-0.197,0.525-0.262,0.735c-0.105,0.276-0.157,0.485-0.171,0.604
		c-0.013,0.131-0.026,0.21-0.026,0.263c0,0.158,0.118,0.302,0.368,0.407c0.236,0.118,0.643,0.196,1.207,0.249v0.577h-4.371v-0.577
		c0.171-0.013,0.355-0.039,0.564-0.079c0.21-0.039,0.369-0.105,0.487-0.184c0.209-0.118,0.38-0.263,0.525-0.433
		c0.144-0.184,0.262-0.381,0.354-0.63c0.578-1.404,1.155-2.808,1.745-4.213c0.578-1.404,1.221-2.966,1.93-4.659h1.496
		c0.985,2.402,1.746,4.305,2.296,5.71c0.552,1.404,1.024,2.559,1.418,3.478c0.066,0.144,0.145,0.289,0.249,0.407
		c0.092,0.118,0.236,0.236,0.421,0.341c0.144,0.092,0.301,0.145,0.499,0.184c0.183,0.039,0.34,0.066,0.498,0.079V75.283
		L66.173,75.283z M60.582,70.991l-1.535-3.845l-1.523,3.845H60.582z"/>
	<path fill-rule="evenodd" clip-rule="evenodd" d="M76.266,71.883l-0.21,3.399h-9.791v-0.577c0.171-0.013,0.381-0.039,0.617-0.079
		c0.236-0.026,0.393-0.052,0.459-0.092c0.184-0.065,0.315-0.157,0.38-0.289c0.067-0.118,0.106-0.288,0.106-0.472v-7.507
		c0-0.17-0.027-0.328-0.08-0.446c-0.065-0.118-0.196-0.223-0.406-0.315c-0.145-0.065-0.341-0.131-0.551-0.17
		c-0.223-0.04-0.394-0.066-0.525-0.092v-0.59h5.84v0.59c-0.157,0.013-0.354,0.04-0.564,0.066c-0.223,0.027-0.407,0.066-0.565,0.118
		c-0.196,0.065-0.328,0.158-0.393,0.302c-0.066,0.131-0.106,0.289-0.106,0.46v6.995c0,0.328,0.027,0.59,0.079,0.774
		c0.039,0.197,0.132,0.328,0.263,0.42c0.118,0.106,0.301,0.157,0.538,0.184c0.236,0.026,0.551,0.039,0.958,0.039
		c0.407,0,0.788-0.013,1.168-0.066c0.381-0.052,0.644-0.145,0.814-0.314c0.249-0.25,0.512-0.604,0.787-1.077
		c0.262-0.459,0.473-0.879,0.631-1.26H76.266z"/>
	<path fill-rule="evenodd" clip-rule="evenodd" d="M90.926,75.283h-8.427v-0.826c0.198-0.013,0.486-0.039,0.853-0.066
		c0.381-0.026,0.631-0.078,0.775-0.131c0.263-0.105,0.446-0.249,0.552-0.42c0.092-0.171,0.144-0.394,0.144-0.67V62.408
		c0-0.25-0.052-0.459-0.144-0.643c-0.093-0.183-0.276-0.341-0.552-0.446c-0.17-0.078-0.42-0.144-0.761-0.223
		c-0.328-0.079-0.617-0.132-0.867-0.158v-0.84h8.427v0.84c-0.211,0.026-0.486,0.053-0.801,0.092
		c-0.328,0.04-0.591,0.092-0.814,0.171c-0.275,0.092-0.459,0.236-0.551,0.433c-0.091,0.197-0.144,0.42-0.144,0.67v10.749
		c0,0.263,0.053,0.473,0.144,0.657c0.092,0.184,0.276,0.328,0.551,0.446c0.144,0.066,0.394,0.131,0.748,0.184
		c0.342,0.065,0.631,0.105,0.867,0.118V75.283z"/>
	<path fill-rule="evenodd" clip-rule="evenodd" d="M104.325,65.242c-0.143,0.013-0.34,0.04-0.59,0.079
		c-0.263,0.039-0.499,0.144-0.709,0.302c-0.183,0.131-0.315,0.355-0.393,0.683c-0.079,0.328-0.118,0.813-0.118,1.443v7.6h-1.339
		l-6.614-8.216v4.987c0,0.617,0.039,1.09,0.117,1.418c0.092,0.315,0.223,0.551,0.407,0.696c0.131,0.118,0.354,0.21,0.643,0.302
		c0.289,0.079,0.525,0.145,0.708,0.171v0.577h-4.58v-0.577c0.197-0.013,0.421-0.053,0.683-0.105c0.249-0.066,0.459-0.158,0.63-0.276
		c0.197-0.145,0.328-0.354,0.394-0.656c0.078-0.289,0.118-0.774,0.118-1.47v-5.027c0-0.249-0.04-0.485-0.118-0.708
		c-0.079-0.223-0.197-0.42-0.368-0.578c-0.171-0.17-0.38-0.302-0.604-0.394c-0.222-0.105-0.485-0.183-0.774-0.236v-0.604h4.002
		l5.816,7.193v-4.016c0-0.644-0.053-1.116-0.132-1.431c-0.078-0.315-0.223-0.538-0.407-0.695c-0.145-0.105-0.355-0.211-0.644-0.289
		c-0.287-0.078-0.511-0.145-0.682-0.171v-0.59h4.554V65.242z"/>
	<path fill-rule="evenodd" clip-rule="evenodd" d="M114.812,65.846c0.525,0.473,0.945,1.05,1.246,1.732
		c0.316,0.683,0.46,1.457,0.46,2.323c0,0.775-0.131,1.51-0.38,2.205c-0.263,0.709-0.644,1.299-1.129,1.811
		c-0.512,0.525-1.115,0.932-1.811,1.22c-0.696,0.289-1.523,0.447-2.481,0.447c-0.774,0-1.509-0.132-2.191-0.381
		c-0.696-0.263-1.3-0.63-1.825-1.116c-0.524-0.473-0.931-1.05-1.234-1.733c-0.301-0.682-0.459-1.43-0.459-2.27
		c0-0.867,0.145-1.654,0.447-2.363c0.301-0.709,0.708-1.312,1.22-1.811c0.524-0.499,1.129-0.879,1.837-1.142
		c0.709-0.275,1.457-0.407,2.258-0.407c0.787,0,1.536,0.132,2.231,0.394C113.697,65.02,114.301,65.374,114.812,65.846
		L114.812,65.846z M112.883,73.446c0.236-0.447,0.394-0.971,0.498-1.536c0.092-0.577,0.145-1.234,0.145-1.955
		c0-0.617-0.039-1.207-0.131-1.799c-0.092-0.577-0.236-1.102-0.446-1.562c-0.211-0.446-0.5-0.814-0.854-1.09
		c-0.354-0.276-0.8-0.407-1.325-0.407c-0.906,0-1.588,0.42-2.061,1.286c-0.472,0.854-0.708,2.061-0.708,3.636
		c0,0.656,0.053,1.286,0.157,1.877c0.105,0.59,0.263,1.102,0.486,1.549c0.223,0.446,0.511,0.787,0.853,1.037
		c0.341,0.249,0.774,0.367,1.273,0.367c0.498,0,0.919-0.118,1.273-0.367C112.398,74.233,112.673,73.892,112.883,73.446z"/>
	<path fill-rule="evenodd" clip-rule="evenodd" d="M129.052,65.256c-0.157,0.013-0.315,0.053-0.473,0.093
		c-0.144,0.039-0.301,0.118-0.458,0.209c-0.224,0.118-0.381,0.262-0.499,0.394c-0.118,0.144-0.236,0.341-0.354,0.59
		c-0.159,0.354-0.368,0.853-0.644,1.51c-0.288,0.67-0.604,1.418-0.958,2.257c-0.328,0.762-0.67,1.601-1.036,2.494
		c-0.381,0.906-0.735,1.772-1.077,2.598h-1.509c-0.696-1.706-1.404-3.451-2.127-5.21c-0.722-1.772-1.233-3.006-1.535-3.688
		c-0.105-0.249-0.223-0.433-0.328-0.564c-0.105-0.131-0.276-0.263-0.512-0.394c-0.171-0.092-0.315-0.158-0.446-0.196
		c-0.132-0.04-0.302-0.079-0.525-0.106v-0.59h5.761v0.577c-0.538,0.066-0.906,0.132-1.089,0.211
		c-0.196,0.065-0.289,0.158-0.289,0.263l0.026,0.183c0.014,0.066,0.04,0.144,0.079,0.249c0.158,0.433,0.446,1.155,0.867,2.153
		c0.42,0.998,1.037,2.507,1.863,4.554c0.499-1.247,0.919-2.297,1.26-3.15c0.328-0.866,0.631-1.614,0.88-2.284
		c0.131-0.315,0.236-0.617,0.315-0.892c0.078-0.276,0.118-0.486,0.118-0.617c0-0.171-0.118-0.302-0.342-0.407
		c-0.236-0.105-0.655-0.183-1.272-0.236v-0.604h4.304V65.256z"/>
	<path fill-rule="evenodd" clip-rule="evenodd" d="M138.686,67.369h-0.564c-0.145-0.407-0.395-0.814-0.749-1.22
		c-0.354-0.42-0.709-0.657-1.063-0.735c-0.144-0.039-0.354-0.053-0.617-0.065c-0.275,0-0.498-0.013-0.669-0.013h-1.549v4.108h1.103
		c0.275,0,0.525-0.039,0.747-0.105c0.224-0.066,0.434-0.185,0.617-0.368c0.106-0.118,0.224-0.315,0.342-0.617
		c0.118-0.289,0.197-0.538,0.236-0.748h0.564v4.436h-0.564c-0.039-0.21-0.118-0.472-0.236-0.801
		c-0.118-0.315-0.236-0.524-0.342-0.656c-0.17-0.171-0.367-0.302-0.59-0.367c-0.223-0.066-0.485-0.092-0.774-0.092h-1.103v3.058
		c0,0.314,0.026,0.577,0.079,0.761c0.039,0.183,0.131,0.328,0.262,0.433c0.131,0.092,0.302,0.157,0.512,0.184
		c0.223,0.026,0.512,0.039,0.893,0.039c0.171,0,0.381,0,0.629,0c0.237-0.013,0.46-0.027,0.644-0.053
		c0.209-0.013,0.407-0.053,0.59-0.105c0.185-0.053,0.315-0.118,0.407-0.223c0.236-0.236,0.512-0.617,0.801-1.117
		c0.302-0.499,0.499-0.879,0.603-1.128h0.539l-0.197,3.307h-9.974v-0.577c0.144-0.013,0.327-0.026,0.576-0.065
		c0.236-0.026,0.407-0.066,0.499-0.105c0.197-0.078,0.315-0.184,0.381-0.302c0.066-0.119,0.105-0.276,0.105-0.46v-7.507
		c0-0.17-0.026-0.328-0.079-0.446c-0.065-0.118-0.197-0.223-0.407-0.315c-0.131-0.065-0.301-0.118-0.538-0.17
		c-0.236-0.04-0.419-0.079-0.537-0.092v-0.59h9.423V67.369z"/>
</g>
</svg>
