<svg xmlns="http://www.w3.org/2000/svg" width="40.747" height="60.098" viewBox="0 0 40.747 60.098"><g fill-rule="evenodd" clip-rule="evenodd"><path d="M20.273 11.218c-1.082 0-1.963.44-2.725 1.322-.76.92-1.12 2.243-1.12 4.086 0 3.606 1.32 5.41 3.925 5.41 2.644 0 3.926-1.804 3.926-5.41 0-1.723-.36-3.045-1.083-4.006-.72-.92-1.682-1.402-2.924-1.402z"/><path d="M19.952 45.074c-7.09 0-10.497-5.41-10.497-14.544l6.53-.72c0 3.925-.2 8.654.882 10.095 1.002 1.282 6.29 1.523 6.97-.16.763-1.843.763-6.77.763-13.502l-.04-1.08c-1.363 2.122-3.406 3.204-6.13 3.204-3.085 0-5.45-1.162-7.05-3.526-1.643-2.323-2.445-4.927-2.445-7.772 0-3.125.922-5.85 2.805-8.093 1.843-2.284 4.648-3.406 8.373-3.406 3.246 0 5.73.88 7.453 2.643 1.683 1.723 2.804 3.966 3.405 6.65.562 2.685.843 5.45.843 8.295 0 12.54-3.968 21.916-11.86 21.916zM20.392 0C9.136 0 0 9.135 0 20.393c0 4.087 1.202 7.933 3.325 11.138.04.08.08.16.16.282.842 1.442 1.844 2.764 3.045 4.367 2.605 3.525 2.885 6.17 3.206 8.853.56 4.167 1.802 5.53 3.285 5.61 2.926.04 6.852-.08 7.373-.12h.04c.44.04 4.407.16 7.332.12 1.483-.08 2.724-1.443 3.285-5.61.32-2.684.6-5.328 3.205-8.854 1.322-1.804 2.484-3.206 3.366-4.89 1.964-3.124 3.126-6.85 3.126-10.817v-.12C40.746 9.135 31.61 0 20.393 0zM26.163 52.245h-12.34c-.48 0-.882.4-.882.882 0 .52.402.88.882.88h12.34c.48 0 .882-.36.882-.88 0-.48-.4-.882-.88-.882zM26.163 55.33h-12.34c-.48 0-.882.4-.882.88 0 .523.402.883.882.883h12.34c.48 0 .882-.36.882-.882 0-.48-.4-.88-.88-.88zM22.838 58.335h-5.73c-.48 0-.88.4-.88.882 0 .48.4.88.88.88h5.73c.52 0 .88-.4.88-.88s-.36-.882-.88-.882z"/></g></svg>