<svg xmlns="http://www.w3.org/2000/svg" width="139.434" height="75.585" viewBox="0 0 139.434 75.585"><g fill-rule="evenodd" clip-rule="evenodd"><path d="M69.617 11.218c-1.082 0-1.964.44-2.725 1.322-.76.92-1.12 2.243-1.12 4.086 0 3.606 1.32 5.41 3.925 5.41 2.644 0 3.926-1.804 3.926-5.41 0-1.723-.36-3.045-1.082-4.006-.72-.92-1.68-1.402-2.923-1.402z"/><path d="M69.296 45.074c-7.09 0-10.497-5.41-10.497-14.544l6.53-.72c0 3.925-.2 8.654.88 10.095 1.003 1.282 6.29 1.523 6.972-.16.76-1.843.76-6.77.76-13.503l-.04-1.08c-1.362 2.122-3.405 3.204-6.13 3.204-3.084 0-5.448-1.162-7.05-3.526-1.642-2.324-2.444-4.928-2.444-7.773 0-3.125.922-5.85 2.805-8.093 1.843-2.284 4.648-3.406 8.374-3.406 3.246 0 5.73.882 7.453 2.644 1.683 1.723 2.804 3.966 3.405 6.65.56 2.685.842 5.45.842 8.295 0 12.54-3.968 21.917-11.86 21.917zM69.736 0C58.48 0 49.345 9.135 49.345 20.393c0 4.087 1.202 7.933 3.325 11.138.04.08.08.16.16.282.84 1.442 1.843 2.764 3.044 4.367 2.605 3.525 2.885 6.17 3.206 8.853.56 4.167 1.802 5.53 3.285 5.61 2.925.04 6.85-.08 7.372-.12h.04c.44.04 4.407.16 7.332.12 1.482-.08 2.723-1.443 3.284-5.61.32-2.684.6-5.328 3.205-8.854 1.32-1.804 2.483-3.206 3.365-4.89 1.963-3.124 3.125-6.85 3.125-10.817v-.12C90.09 9.135 80.955 0 69.737 0zM75.507 52.245h-12.34c-.48 0-.882.4-.882.882 0 .52.4.88.88.88h12.342c.48 0 .88-.36.88-.88 0-.48-.4-.882-.88-.882zM75.507 55.33h-12.34c-.48 0-.882.4-.882.88 0 .523.4.883.88.883h12.342c.48 0 .88-.36.88-.882 0-.48-.4-.88-.88-.88zM72.18 58.335h-5.73c-.48 0-.88.4-.88.882 0 .48.4.88.88.88h5.73c.522 0 .882-.4.882-.88s-.36-.882-.88-.882z"/></g><g fill-rule="evenodd" clip-rule="evenodd"><path d="M13.702 61.66c.932.617 1.68 1.418 2.243 2.428.578 1.01.853 2.244.853 3.714 0 1.273-.248 2.402-.76 3.347-.512.957-1.182 1.73-2.02 2.335-.868.617-1.84 1.063-2.928 1.365-1.09.288-2.218.433-3.413.433H.025v-.826c.224-.013.513-.026.854-.066.34-.038.576-.077.682-.13.262-.105.433-.25.537-.433.105-.184.144-.407.144-.656V62.41c0-.25-.04-.472-.13-.656-.093-.197-.277-.354-.552-.486-.263-.118-.552-.197-.853-.25-.304-.038-.54-.065-.71-.078v-.84h8.084c.867 0 1.785.118 2.77.34.984.224 1.928.63 2.848 1.222zm-2.18 10.893c.342-.577.605-1.26.762-2.048.158-.787.236-1.693.236-2.717 0-1.01-.105-1.93-.314-2.756-.224-.827-.525-1.536-.945-2.113-.42-.59-.93-1.038-1.548-1.366-.617-.314-1.313-.472-2.1-.472-.25 0-.538 0-.853.013-.317.013-.553.013-.71.026v11.524c0 .263.027.485.104.683.067.196.185.367.342.512.17.156.368.274.604.353.236.078.55.118.945.118.8 0 1.496-.144 2.074-.446.576-.3 1.035-.734 1.403-1.31zM23.925 75.283h-5.893v-.577c.132-.013.342-.026.604-.053.263-.013.434-.04.538-.08.185-.078.315-.183.38-.3.067-.12.092-.277.092-.473v-7.534c0-.17-.025-.315-.09-.446-.067-.13-.197-.236-.382-.315-.118-.052-.302-.105-.538-.157-.223-.053-.433-.08-.604-.106v-.59h5.893v.59c-.144.013-.328.04-.55.066-.236.027-.42.066-.578.118-.197.065-.328.158-.393.302-.053.13-.093.29-.093.46v7.534c0 .183.04.328.106.46.066.13.197.236.38.314.106.04.276.092.526.13.236.04.446.067.603.08v.577zM36.747 70.965c-.144.013-.287.04-.407.052-.118.027-.26.066-.446.118-.21.066-.34.17-.407.328-.065.144-.09.302-.09.473v1.836c.012.145.012.34.025.565-.5.302-1.233.577-2.218.84-.97.275-1.876.407-2.69.407-.775 0-1.496-.118-2.166-.354-.67-.235-1.26-.59-1.77-1.063-.514-.46-.92-1.037-1.208-1.732-.29-.683-.434-1.47-.434-2.362 0-.827.13-1.6.407-2.297.275-.71.67-1.312 1.194-1.824.512-.512 1.13-.893 1.864-1.168.736-.276 1.536-.42 2.43-.42.602 0 1.166.08 1.68.224.51.157.93.315 1.27.485l.46-.42h.657l.065 3.885h-.655c-.38-1.168-.84-2.034-1.365-2.598-.525-.564-1.194-.84-2.008-.84-.96 0-1.693.42-2.218 1.26-.525.84-.787 1.995-.787 3.465 0 1.56.26 2.782.772 3.674.513.88 1.234 1.325 2.166 1.325.446 0 .84-.066 1.18-.197.343-.13.605-.288.8-.46v-2.165c0-.17-.038-.328-.103-.446s-.197-.236-.394-.315c-.144-.078-.327-.13-.55-.183-.223-.04-.42-.067-.565-.093v-.578h5.512v.575zM43.153 75.283H37.26v-.577c.13-.013.328-.026.59-.053.263-.013.446-.04.538-.08.185-.078.315-.183.38-.3.066-.12.106-.277.106-.473v-7.534c0-.17-.026-.315-.09-.446-.068-.13-.2-.236-.396-.315-.118-.052-.29-.105-.525-.157-.236-.053-.432-.08-.603-.106v-.59h5.893v.59c-.158.013-.342.04-.565.066-.223.027-.42.066-.564.118-.198.065-.328.158-.394.302-.065.13-.09.29-.09.46v7.534c0 .183.025.328.09.46.066.13.196.236.394.314.105.04.276.092.512.13.25.04.446.067.617.08v.577zM54.02 67.697h-.59c-.146-.447-.394-.945-.736-1.457-.342-.525-.656-.8-.945-.84-.16-.026-.355-.04-.59-.052-.237-.013-.435-.027-.605-.027H50.2v8.348c0 .17.027.328.092.472.065.13.197.25.38.33.12.038.302.09.538.13.25.052.448.078.618.105v.577h-5.92v-.577c.146-.013.342-.04.604-.065.263-.026.446-.066.54-.105.195-.078.327-.184.392-.314.066-.144.092-.3.092-.485v-8.413h-.34c-.17 0-.38.013-.62.027-.22.01-.418.025-.59.05-.287.04-.602.316-.944.84-.34.513-.578 1.01-.735 1.458h-.59v-3.045H54.02v3.044zM66.173 75.283h-5.788v-.577c.262-.026.577-.065.944-.144.367-.078.538-.17.538-.29v-.144c-.013-.04-.04-.105-.065-.196l-.906-2.205h-3.675c-.078.21-.17.446-.276.722-.105.275-.197.524-.262.734-.105.276-.157.485-.17.604-.014.13-.027.21-.027.263 0 .16.118.303.368.408.236.118.643.196 1.207.25v.576h-4.37v-.577c.17-.013.354-.04.563-.08.21-.038.37-.104.487-.183.21-.118.38-.263.525-.433.144-.183.262-.38.354-.63.58-1.403 1.156-2.807 1.746-4.212.578-1.404 1.22-2.966 1.93-4.66h1.496c.985 2.403 1.746 4.306 2.296 5.71.552 1.405 1.024 2.56 1.418 3.48.066.143.145.288.25.406.09.118.235.236.42.34.144.093.3.146.5.185.182.038.34.065.497.078v.575zm-5.59-4.292l-1.536-3.844-1.523 3.845h3.058zM76.266 71.883l-.21 3.4h-9.79v-.578c.17-.013.38-.04.616-.08.236-.025.393-.05.46-.09.183-.066.314-.158.38-.29.066-.118.105-.288.105-.472v-7.507c0-.17-.027-.328-.08-.446-.065-.118-.196-.223-.406-.315-.144-.065-.34-.13-.55-.17-.223-.04-.394-.066-.525-.092v-.59h5.84v.59c-.157.013-.354.04-.564.066-.222.026-.406.065-.564.117-.196.065-.328.158-.393.302-.066.13-.106.288-.106.46v6.994c0 .328.027.59.08.774.038.197.13.328.262.42.117.106.3.157.537.184.236.026.55.04.958.04.407 0 .788-.014 1.168-.067.38-.052.644-.145.814-.314.25-.25.512-.603.787-1.076.262-.46.473-.88.63-1.26h.552zM90.926 75.283H82.5v-.826c.197-.013.485-.04.852-.066.38-.025.63-.077.775-.13.263-.105.446-.25.552-.42.09-.17.143-.394.143-.67V62.408c0-.25-.052-.46-.144-.643-.094-.183-.277-.34-.553-.446-.17-.08-.42-.145-.76-.224-.33-.08-.618-.132-.868-.158v-.84h8.426v.84c-.21.026-.486.053-.8.092-.33.04-.592.092-.815.17-.274.093-.458.237-.55.434-.09.197-.144.42-.144.67v10.75c0 .262.053.472.144.656.092.184.276.328.55.446.145.066.395.13.75.184.34.065.63.105.866.118v.825zM104.325 65.242c-.143.013-.34.04-.59.08-.263.038-.5.143-.71.3-.182.132-.314.356-.392.684-.08.328-.118.813-.118 1.443v7.6h-1.34l-6.613-8.217v4.987c0 .617.04 1.09.117 1.418.09.315.222.55.406.696.13.118.354.21.643.302.288.08.524.145.707.17v.578h-4.58v-.577c.197-.013.42-.053.683-.105.25-.066.46-.158.63-.276.197-.145.328-.354.394-.656.078-.29.118-.774.118-1.47v-5.027c0-.25-.04-.485-.118-.708-.08-.223-.197-.42-.368-.578-.17-.17-.38-.302-.604-.394-.222-.105-.485-.183-.774-.236v-.604h4.002l5.816 7.193V67.83c0-.644-.053-1.116-.132-1.43-.078-.316-.223-.54-.407-.696-.145-.105-.355-.21-.644-.29-.287-.077-.51-.144-.682-.17v-.59h4.555v.588zM114.812 65.846c.525.473.945 1.05 1.246 1.732.316.683.46 1.457.46 2.323 0 .776-.13 1.51-.38 2.206-.263.71-.644 1.3-1.13 1.81-.51.526-1.114.933-1.81 1.22-.696.29-1.523.448-2.48.448-.775 0-1.51-.132-2.192-.38-.696-.264-1.3-.63-1.825-1.117-.523-.473-.93-1.05-1.233-1.733-.3-.682-.46-1.43-.46-2.27 0-.867.146-1.654.448-2.363.3-.708.708-1.31 1.22-1.81.524-.5 1.13-.88 1.837-1.142.71-.275 1.457-.407 2.258-.407.787 0 1.536.133 2.23.395.697.265 1.3.62 1.812 1.09zm-1.93 7.6c.237-.447.395-.97.5-1.536.09-.577.144-1.234.144-1.955 0-.617-.04-1.207-.13-1.8-.093-.576-.237-1.1-.447-1.56-.212-.447-.5-.815-.855-1.09-.354-.277-.8-.408-1.325-.408-.906 0-1.588.42-2.06 1.286-.473.854-.71 2.06-.71 3.636 0 .655.054 1.285.158 1.876.105.59.263 1.102.486 1.55.223.445.51.786.853 1.036.34.25.774.367 1.273.367.498 0 .92-.12 1.273-.368.355-.25.63-.59.84-1.036zM129.052 65.256c-.157.013-.315.053-.473.093-.145.038-.302.117-.46.208-.223.118-.38.262-.498.394-.118.144-.236.34-.354.59-.16.354-.368.853-.644 1.51-.288.67-.604 1.418-.958 2.257-.328.76-.67 1.6-1.036 2.493-.38.906-.735 1.772-1.077 2.598h-1.51c-.695-1.705-1.403-3.45-2.126-5.21-.722-1.77-1.233-3.005-1.535-3.687-.105-.25-.223-.433-.328-.564-.105-.132-.276-.264-.512-.395-.17-.092-.315-.158-.446-.196-.132-.04-.302-.08-.525-.107v-.59h5.762v.577c-.538.066-.906.132-1.09.21-.195.066-.288.16-.288.264l.026.183c.014.066.04.144.08.25.157.432.445 1.154.866 2.152.42.997 1.037 2.506 1.863 4.553l1.26-3.15c.327-.866.63-1.614.88-2.284.13-.316.235-.618.314-.893.078-.276.118-.486.118-.617 0-.17-.118-.302-.342-.407-.236-.105-.655-.183-1.272-.236v-.604h4.304v.603zM138.686 67.37h-.564c-.145-.408-.395-.815-.75-1.22-.353-.42-.708-.658-1.062-.736-.144-.04-.354-.053-.617-.065-.275 0-.498-.014-.67-.014h-1.548v4.108h1.103c.275 0 .525-.04.747-.105.224-.067.434-.186.617-.37.106-.117.224-.314.342-.616.118-.29.197-.538.236-.748h.564v4.436h-.564c-.04-.21-.118-.472-.236-.8-.118-.316-.236-.525-.342-.657-.17-.17-.367-.302-.59-.367-.223-.066-.485-.092-.774-.092h-1.103v3.058c0 .314.026.577.08.76.038.184.13.33.26.434.132.092.303.157.513.184.223.026.512.04.893.04h.63c.237-.014.46-.028.644-.054.21-.013.407-.053.59-.105.185-.053.315-.118.407-.223.237-.236.513-.617.802-1.117.302-.5.5-.88.603-1.128h.54l-.198 3.307h-9.974v-.577c.144-.013.327-.026.576-.065.235-.026.406-.066.498-.105.197-.078.315-.184.38-.302.067-.12.106-.276.106-.46v-7.507c0-.17-.026-.328-.08-.446-.064-.118-.196-.223-.406-.315-.13-.065-.3-.118-.538-.17-.236-.04-.42-.08-.537-.092v-.59h9.423v2.716z"/></g></svg>