<svg xmlns="http://www.w3.org/2000/svg" width="139.434" height="15.185" viewBox="0 0 139.434 15.185"><g fill-rule="evenodd" clip-rule="evenodd"><path d="M13.702 1.562c.932.617 1.68 1.418 2.243 2.428.578 1.01.853 2.244.853 3.714 0 1.273-.248 2.402-.76 3.347-.512.96-1.182 1.733-2.02 2.337-.868.617-1.84 1.063-2.928 1.365-1.09.288-2.218.433-3.413.433H.025v-.826c.224-.014.513-.027.854-.067.34-.04.576-.078.682-.13.262-.106.433-.25.537-.434.105-.185.144-.408.144-.657V2.31c0-.25-.04-.472-.13-.656-.093-.198-.277-.355-.552-.486C1.3 1.048 1.01.97.71.918.405.88.17.853 0 .84V0h8.084c.867 0 1.785.118 2.77.34.984.224 1.928.63 2.848 1.222zm-2.18 10.893c.342-.578.605-1.26.762-2.048.158-.787.236-1.693.236-2.717 0-1.01-.105-1.93-.314-2.756-.224-.827-.525-1.536-.945-2.113-.42-.59-.93-1.036-1.548-1.364-.617-.314-1.313-.472-2.1-.472-.25 0-.538 0-.853.013-.317.014-.553.014-.71.027v11.523c0 .263.027.485.104.683.067.196.185.367.342.512.17.157.368.275.604.354.236.078.55.118.945.118.8 0 1.496-.145 2.074-.446.576-.303 1.035-.736 1.403-1.313zM23.925 15.185h-5.893v-.577c.132-.013.342-.026.604-.053.263-.013.434-.04.538-.078.185-.08.315-.184.38-.302.067-.118.092-.276.092-.472V6.168c0-.17-.025-.315-.09-.446-.067-.13-.197-.236-.382-.315-.118-.052-.302-.105-.538-.157-.223-.053-.433-.08-.604-.106v-.59h5.893v.59c-.144.013-.328.04-.55.066-.236.027-.42.066-.578.118-.197.065-.328.158-.393.302-.053.13-.093.29-.093.46v7.534c0 .183.04.328.106.46.066.13.197.235.38.314.106.04.276.092.526.13.236.04.446.067.603.08v.577zM36.747 10.867c-.144.013-.287.04-.407.052-.118.026-.26.065-.446.117-.21.065-.34.17-.407.328-.065.144-.09.302-.09.473v1.838c.012.145.012.34.025.565-.5.302-1.233.577-2.218.84-.97.275-1.876.407-2.69.407-.775 0-1.496-.118-2.166-.354-.67-.236-1.26-.59-1.77-1.064-.514-.46-.92-1.038-1.208-1.733-.29-.683-.434-1.47-.434-2.362 0-.827.13-1.6.407-2.297.275-.71.67-1.312 1.194-1.824.512-.512 1.13-.893 1.864-1.168.736-.276 1.536-.42 2.43-.42.602 0 1.166.08 1.68.224.51.157.93.315 1.27.485l.46-.42h.657l.065 3.885h-.655c-.38-1.168-.84-2.034-1.365-2.598C32.417 5.276 31.748 5 30.934 5c-.96 0-1.693.42-2.218 1.26-.525.84-.787 1.995-.787 3.465 0 1.56.26 2.782.772 3.674.513.88 1.234 1.325 2.166 1.325.446 0 .84-.066 1.18-.197.343-.13.605-.288.8-.46v-2.165c0-.17-.038-.328-.103-.446s-.197-.236-.394-.315c-.144-.08-.327-.13-.55-.183-.223-.04-.42-.067-.565-.093v-.578h5.512v.577zM43.153 15.185H37.26v-.577c.13-.013.328-.026.59-.053.263-.013.446-.04.538-.078.185-.08.315-.184.38-.302.066-.118.106-.276.106-.472V6.168c0-.17-.026-.315-.09-.446-.068-.13-.2-.236-.396-.315-.118-.052-.29-.105-.525-.157-.236-.053-.432-.08-.603-.106v-.59h5.893v.59c-.158.013-.342.04-.565.066-.223.027-.42.066-.564.118-.198.065-.328.158-.394.302-.065.13-.09.29-.09.46v7.534c0 .183.025.328.09.46.066.13.196.235.394.314.105.04.276.092.512.13.25.04.446.067.617.08v.577zM54.02 7.6h-.59c-.146-.448-.394-.946-.736-1.458-.342-.525-.656-.8-.945-.84-.16-.026-.355-.04-.59-.052-.237-.013-.435-.027-.605-.027H50.2v8.347c0 .17.027.328.092.472.065.13.197.25.38.33.12.038.302.09.538.13.25.052.448.08.618.105v.577h-5.92v-.577c.146-.013.342-.04.604-.065.263-.026.446-.066.54-.105.195-.078.327-.184.392-.314.066-.145.092-.302.092-.486V5.223h-.34c-.17 0-.38.013-.62.027-.22.012-.418.026-.59.052-.287.04-.602.315-.944.84-.34.512-.578 1.01-.735 1.457h-.59V4.553H54.02V7.6zM66.173 15.185h-5.788v-.577c.262-.026.577-.065.944-.144.367-.078.538-.17.538-.29v-.144c-.013-.04-.04-.105-.065-.196l-.906-2.205h-3.675c-.078.21-.17.445-.276.72-.105.277-.197.526-.262.736-.105.276-.157.485-.17.604-.014.13-.027.21-.027.262 0 .158.118.302.368.407.236.117.643.195 1.207.248v.577h-4.37v-.577c.17-.013.354-.04.563-.08.21-.038.37-.104.487-.183.21-.118.38-.262.525-.433.144-.184.262-.38.354-.63.58-1.404 1.156-2.808 1.746-4.213.578-1.405 1.22-2.967 1.93-4.66h1.496c.985 2.402 1.746 4.305 2.296 5.71.552 1.404 1.024 2.56 1.418 3.478.066.144.145.29.25.407.09.118.235.236.42.34.144.093.3.146.5.185.182.04.34.066.497.08v.575zm-5.59-4.292l-1.536-3.845-1.523 3.845h3.058zM76.266 11.785l-.21 3.4h-9.79v-.578c.17-.013.38-.04.616-.08.236-.025.393-.05.46-.09.183-.066.314-.158.38-.29.066-.118.105-.288.105-.472V6.168c0-.17-.027-.328-.08-.446-.065-.118-.196-.223-.406-.315-.144-.065-.34-.13-.55-.17-.223-.04-.394-.066-.525-.092v-.59h5.84v.59c-.157.013-.354.04-.564.066-.222.028-.406.067-.564.12-.196.064-.328.157-.393.3-.066.132-.106.29-.106.46v6.996c0 .328.027.59.08.774.038.197.13.328.262.42.117.106.3.157.537.184.236.026.55.04.958.04.407 0 .788-.014 1.168-.067.38-.052.644-.145.814-.314.25-.25.512-.604.787-1.077.262-.46.473-.88.63-1.26h.552zM90.926 15.185H82.5v-.826c.197-.014.485-.04.852-.067.38-.026.63-.078.775-.13.263-.106.446-.25.552-.42.09-.172.143-.395.143-.67V2.31c0-.25-.052-.46-.144-.643-.094-.183-.277-.34-.553-.446-.17-.077-.42-.143-.76-.222-.33-.08-.618-.132-.868-.158V0h8.426v.84c-.21.026-.486.053-.8.092-.33.04-.592.092-.815.17-.274.093-.458.237-.55.434-.09.197-.144.42-.144.67v10.748c0 .263.053.472.144.656.092.184.276.328.55.446.145.066.395.13.75.184.34.065.63.105.866.118v.827zM104.325 5.144c-.143.013-.34.04-.59.08-.263.038-.5.143-.71.3-.182.132-.314.356-.392.684-.08.328-.118.813-.118 1.443v7.6h-1.34l-6.613-8.215v4.987c0 .617.04 1.09.117 1.418.09.315.222.55.406.696.13.118.354.21.643.302.288.08.524.145.707.17v.578h-4.58v-.577c.197-.014.42-.054.683-.106.25-.066.46-.158.63-.276.197-.145.328-.354.394-.656.078-.29.118-.774.118-1.47V7.074c0-.25-.04-.485-.118-.708-.08-.223-.197-.42-.368-.578-.17-.17-.38-.302-.604-.394-.222-.105-.485-.183-.774-.236v-.604h4.002l5.816 7.193V7.73c0-.643-.053-1.116-.132-1.43-.078-.316-.223-.54-.407-.696-.145-.105-.355-.21-.644-.29-.287-.077-.51-.143-.682-.17v-.59h4.555v.59zM114.812 5.748c.525.472.945 1.05 1.246 1.732.316.683.46 1.457.46 2.323 0 .775-.13 1.51-.38 2.205-.263.71-.644 1.3-1.13 1.81-.51.526-1.114.933-1.81 1.22-.696.29-1.523.448-2.48.448-.775 0-1.51-.132-2.192-.38-.696-.263-1.3-.63-1.825-1.117-.523-.473-.93-1.05-1.233-1.734-.3-.682-.46-1.43-.46-2.27 0-.867.146-1.654.448-2.363.3-.71.708-1.312 1.22-1.81.524-.5 1.13-.88 1.837-1.143.71-.275 1.457-.407 2.258-.407.787 0 1.536.132 2.23.394.697.265 1.3.62 1.812 1.09zm-1.93 7.6c.237-.447.395-.972.5-1.537.09-.576.144-1.233.144-1.954 0-.617-.04-1.207-.13-1.8-.093-.576-.237-1.1-.447-1.56-.212-.447-.5-.815-.855-1.09-.354-.275-.8-.406-1.325-.406-.906 0-1.588.42-2.06 1.286-.473.853-.71 2.06-.71 3.636 0 .656.054 1.286.158 1.877.105.59.263 1.1.486 1.548.223.446.51.788.853 1.037.34.25.774.367 1.273.367.498 0 .92-.118 1.273-.367.355-.25.63-.59.84-1.038zM129.052 5.157c-.157.013-.315.053-.473.093-.145.038-.302.118-.46.21-.223.117-.38.262-.498.393-.118.144-.236.34-.354.59-.16.354-.368.853-.644 1.51-.288.67-.604 1.418-.958 2.257-.328.762-.67 1.6-1.036 2.494-.38.906-.735 1.772-1.077 2.598h-1.51c-.695-1.706-1.403-3.45-2.126-5.21-.722-1.772-1.233-3.006-1.535-3.688-.105-.25-.223-.433-.328-.564-.105-.13-.276-.262-.512-.394-.17-.092-.315-.158-.446-.196-.132-.04-.302-.08-.525-.106v-.59h5.762v.577c-.538.067-.906.132-1.09.212-.195.065-.288.158-.288.263l.026.183c.014.066.04.144.08.25.157.432.445 1.154.866 2.152.42.998 1.037 2.507 1.863 4.554l1.26-3.15c.327-.866.63-1.614.88-2.284.13-.315.235-.617.314-.892.078-.276.118-.486.118-.617 0-.17-.118-.3-.342-.406-.236-.105-.655-.183-1.272-.236v-.604h4.304v.603zM138.686 7.27h-.564c-.145-.406-.395-.813-.75-1.22-.353-.42-.708-.656-1.062-.734-.144-.04-.354-.053-.617-.065-.275 0-.498-.012-.67-.012h-1.548v4.108h1.103c.275 0 .525-.04.747-.105.224-.065.434-.184.617-.367.106-.118.224-.315.342-.617.118-.29.197-.538.236-.748h.564v4.436h-.564c-.04-.21-.118-.472-.236-.8-.118-.316-.236-.525-.342-.657-.17-.17-.367-.302-.59-.367-.223-.066-.485-.092-.774-.092h-1.103v3.058c0 .314.026.577.08.76.038.184.13.33.26.434.132.092.303.157.513.184.223.026.512.04.893.04h.63c.237-.014.46-.028.644-.054.21-.013.407-.053.59-.105.185-.053.315-.118.407-.222.237-.236.513-.617.802-1.117.302-.5.5-.88.603-1.128h.54l-.198 3.307h-9.974v-.577c.144-.013.327-.026.576-.065.235-.026.406-.066.498-.105.197-.078.315-.184.38-.302.067-.12.106-.276.106-.46V6.168c0-.17-.026-.328-.08-.446-.064-.118-.196-.223-.406-.315-.13-.065-.3-.118-.538-.17-.236-.04-.42-.08-.537-.092v-.59h9.423V7.27z"/></g></svg>